HIERARCHY
ROOT Hips
{
	OFFSET 0.000000 0.000000 0.000000 
	CHANNELS 6 Xposition Yposition Zposition Yrotation Zrotation Xrotation 
	JOINT Lumbar
	{
		OFFSET 0.000000 0.000000 0.000000 
		CHANNELS 3 Zrotation Xrotation Yrotation
		JOINT Neck
		{
			OFFSET 0.000000 0.445665 0.000000 
			CHANNELS 3 Zrotation Xrotation Yrotation
			End Site
			{
				OFFSET 0.000000 0.227535 0.000000 
			}
		}
		JOINT RightShoulder
		{
			OFFSET 0.019635 0.377685 0.194865 
			CHANNELS 3 Zrotation Xrotation Yrotation
			JOINT RightElbow
			{
				OFFSET 0.000000 -0.243375 0.000000 
				CHANNELS 2 Zrotation Yrotation
				JOINT RightWrist
				{
					OFFSET 0.000000 -0.264825 0.000000 
					CHANNELS 2 Zrotation Xrotation
					End Site
					{
						OFFSET 0.006600 -0.176220 0.000990 
					}
				}
			}
		}
		JOINT LeftShoulder
		{
			OFFSET 0.019635 0.377685 -0.194865 
			CHANNELS 3 Zrotation Xrotation Yrotation
			JOINT LeftElbow
			{
				OFFSET 0.000000 -0.243375 0.000000 
				CHANNELS 2 Zrotation Yrotation
				JOINT LeftWrist
				{
					OFFSET 0.000000 -0.264825 0.000000 
					CHANNELS 2 Zrotation Xrotation
					End Site
					{
						OFFSET 0.006600 -0.176220 -0.000990 
					}
				}
			}
		}
	}
	JOINT RightHip
	{
		OFFSET 0.052140 -0.069960 0.075570 
		CHANNELS 3 Zrotation Xrotation Yrotation
		JOINT RightKnee
		{
			OFFSET 0.000000 -0.402270 0.000000 
			CHANNELS 1 Zrotation
			JOINT RightAnkle
			{
				OFFSET 0.000000 -0.404085 0.000000 
				CHANNELS 3 Zrotation Xrotation Yrotation
				End Site
				{
					OFFSET 0.204105 -0.089430 0.008415 
				}
			}
		}
	}
	JOINT LeftHip
	{
		OFFSET 0.052140 -0.069960 -0.075570 
		CHANNELS 3 Zrotation Xrotation Yrotation
		JOINT LeftKnee
		{
			OFFSET 0.000000 -0.402270 0.000000 
			CHANNELS 1 Zrotation
			JOINT LeftAnkle
			{
				OFFSET 0.000000 -0.404085 0.000000 
				CHANNELS 3 Zrotation Xrotation Yrotation
				End Site
				{
					OFFSET 0.204105 -0.089430 -0.008415 
				}
			}
		}
	}
}
MOTION
Frames: 16
Frame Time: 0.02
0.00029 3e-05 -0.00032 28.31336 -18.70768 -3.75305 44.43694 -0.9698 -7.16843 -11.74684 3.28878 -1.12706 -22.72966 -8.03034 3.97474 29.89426 60.43073 -0.83014 -4.38014 -24.32701 7.09941 2.13306 33.4137 -104.34381 14.82041 -2.03005 27.42672 -2.45946 -8.81778 -20.49473 -6.63347 -3.62632 -4.0403 33.18161 4.81061 8.97815 -24.4435 -6.41522 1.95472 3.17963
-0.00017 -1e-05 -0.00014 28.26454 -18.7225 -3.7618 44.40897 -0.96906 -7.16942 -11.76649 3.32263 -1.12807 -22.59999 -7.50334 2.1874 29.8395 67.49764 1.03249 -3.16681 -24.31929 6.94102 2.27756 33.36465 -104.35488 14.85621 -2.02543 27.46952 -2.5106 -9.12613 -20.49798 -6.61602 -3.60637 -4.02478 33.22658 4.8166 8.9761 -24.44511 -6.41654 1.95758 3.18124
-0.00062 -4e-05 3e-05 28.21583 -18.73727 -3.77057 44.38101 -0.96831 -7.17042 -11.78608 3.35641 -1.12909 -22.47077 -6.97858 0.40788 29.78497 74.53391 2.88706 -1.95874 -24.3115 6.78283 2.42285 33.31564 -104.37356 14.89436 -2.02213 27.51221 -2.56163 -9.43387 -20.50122 -6.5986 -3.58645 -4.00928 33.27144 4.82263 8.97416 -24.44671 -6.41787 1.96043 3.18284
-0.00108 -8e-05 0.0002 28.16716 -18.75205 -3.7793 44.35311 -0.96756 -7.17141 -11.80567 3.39017 -1.1301 -22.34152 -6.45331 -1.3735 29.7304 81.57731 4.74349 -0.74945 -24.30379 6.62487 2.56717 33.26672 -104.38611 14.93053 -2.01779 27.55488 -2.61262 -9.74136 -20.50446 -6.5812 -3.56656 -3.9938 33.31628 4.82862 8.97214 -24.44831 -6.41919 1.96328 3.18444
-0.00153 -0.00012 0.00038 28.11837 -18.76689 -3.788 44.32524 -0.96684 -7.17237 -11.82531 3.42399 -1.13111 -22.21177 -5.92554 -3.16378 29.67556 88.65553 6.60908 0.46583 -24.29619 6.46687 2.71007 33.21779 -104.38743 14.96323 -2.01149 27.59766 -2.66371 -10.04926 -20.50769 -6.56377 -3.54666 -3.97829 33.3612 4.83454 8.96993 -24.4499 -6.42051 1.96614 3.18606
-0.00199 -0.00016 0.00055 28.06981 -18.78152 -3.79689 44.29709 -0.96602 -7.17345 -11.8448 3.45768 -1.13212 -22.08366 -5.40711 -4.92071 29.62166 95.60377 8.44053 1.65876 -24.28799 6.3083 2.86027 33.16865 -104.44212 15.01269 -2.0144 27.64018 -2.71461 -10.35659 -20.51096 -6.54637 -3.5267 -3.96282 33.40594 4.84078 8.96856 -24.45153 -6.42185 1.96894 3.18763
-0.00244 -0.00021 0.00073 28.02089 -18.79655 -3.8054 44.26953 -0.9654 -7.17432 -11.86457 3.49158 -1.13314 -21.95245 -4.8706 -6.74211 29.566 102.80308 10.3379 2.89486 -24.281 6.15095 2.99607 33.11998 -104.39151 15.02896 -1.99918 27.68314 -2.76584 -10.66492 -20.51415 -6.52892 -3.50686 -3.94729 33.451 4.84639 8.96555 -24.45308 -6.42315 1.97187 3.18928
-0.00289 -0.00024 0.0009 27.97223 -18.81121 -3.81426 44.24142 -0.96459 -7.17534 -11.88409 3.52534 -1.13415 -21.82401 -4.35047 -8.50534 29.51186 109.77599 12.17587 4.09202 -24.27294 5.99266 3.14433 33.07087 -104.43407 15.07479 -1.99997 27.72573 -2.81673 -10.97199 -20.51741 -6.51153 -3.48693 -3.93183 33.49578 4.85256 8.96395 -24.45472 -6.42448 1.9747 3.19087
-0.00335 -0.00028 0.00107 27.92415 -18.82542 -3.82353 44.21261 -0.96355 -7.17671 -11.90329 3.55875 -1.13515 -21.69928 -3.85144 -10.1927 29.45994 116.45314 13.93606 5.23839 -24.26336 5.83236 3.31135 33.02119 -104.60752 15.16135 -2.02336 27.76777 -2.8674 -11.27905 -20.52077 -6.49417 -3.46682 -3.91637 33.54019 4.85952 8.96451 -24.45641 -6.42587 1.97733 3.19234
-0.0038 -0.00033 0.00125 27.87351 -18.84224 -3.83042 44.18775 -0.96384 -7.17654 -11.92429 3.59364 -1.13621 -21.55417 -3.23423 -12.30228 29.39634 124.77484 16.12824 6.66738 -24.26187 5.68101 3.38106 32.97471 -104.07914 15.02743 -1.92586 27.81269 -2.91992 -11.59079 -20.52359 -6.47649 -3.44752 -3.90068 33.58662 4.86225 8.95397 -24.45764 -6.42698 1.98088 3.19436
-0.00426 -0.00036 0.00141 27.82779 -18.85354 -3.84232 44.15465 -0.96131 -7.17935 -11.9415 3.6257 -1.13715 -21.45144 -2.86429 -13.53029 29.35668 129.66381 17.41906 7.50634 -24.24374 5.51252 3.64915 32.92155 -104.9979 15.34953 -2.07743 27.8517 -2.96814 -11.88962 -20.52752 -6.4596 -3.42668 -3.88559 33.62883 4.87367 8.96599 -24.45993 -6.42866 1.98261 3.19529
-0.00475 -0.00033 0.00154 27.79962 -18.8496 -3.86823 44.09788 -0.95121 -7.19263 -11.9483 3.64753 -1.13772 -21.47151 -3.19628 -12.23931 29.38957 124.7386 16.12989 6.65919 -24.17594 5.28211 4.52401 32.84925 -110.20068 17.00945 -2.96813 27.87287 -3.00811 -12.17855 -20.53483 -6.44396 -3.40019 -3.87131 33.65909 4.91114 9.04727 -24.4644 -6.43213 1.97829 3.19269
-0.00525 -0.00028 0.00164 27.77558 -18.8401 -3.89913 44.03305 -0.93826 -7.20852 -11.95133 3.66702 -1.13818 -21.53301 -3.7721 -10.08171 29.4454 116.44202 13.95609 5.23239 -24.09219 5.03731 5.58631 32.77053 -116.79528 19.10978 -4.09809 27.88835 -3.04326 -12.45028 -20.5432 -6.42926 -3.37239 -3.85779 33.68514 4.95681 9.14952 -24.47009 -6.43614 1.97237 3.18913
-0.00574 -0.00024 0.00175 27.74708 -18.83326 -3.92756 43.97264 -0.92653 -7.22165 -11.95608 3.68909 -1.13872 -21.57123 -4.22123 -8.38575 29.48609 109.94261 12.25581 4.1141 -24.01829 4.80871 6.52235 32.69509 -122.55301 20.95405 -5.08293 27.90757 -3.07812 -12.71259 -20.5509 -6.41475 -3.34617 -3.84452 33.71341 4.99743 9.23778 -24.47572 -6.43977 1.9678 3.18635
-0.00623 -0.00019 0.0019 27.72973 -18.826 -3.95683 43.90906 -0.91514 -7.24125 -11.9607 3.70448 -1.13913 -21.62806 -4.73844 -6.40138 29.54613 102.30725 10.249 2.80269 -23.93322 4.53901 7.63301 32.61752 -129.19023 23.04142 -6.22411 27.92215 -3.12287 -13.0456 -20.55943 -6.39771 -3.31593 -3.82882 33.74051 5.04411 9.34625 -24.47925 -6.44394 1.96044 3.18202
-0.00674 -0.00016 0.00195 27.68982 -18.81812 -3.98553 43.85013 -0.9023 -7.2482 -11.9648 3.73355 -1.1398 -21.65631 -5.17094 -4.81287 29.57203 96.25166 8.67462 1.75815 -23.86782 4.35185 8.42333 32.5436 -134.30797 24.71912 -7.09357 27.94475 -3.14659 -13.22982 -20.56643 -6.38608 -3.29358 -3.81823 33.76885 5.07952 9.41592 -24.48744 -6.44713 1.95868 3.18079
